<?xml version="1.0" encoding="utf-8"?>
<!-- Generator: Adobe Illustrator 26.3.1, SVG Export Plug-In . SVG Version: 6.00 Build 0)  -->
<svg version="1.1" id="katman_1" xmlns="http://www.w3.org/2000/svg" xmlns:xlink="http://www.w3.org/1999/xlink" x="0px" y="0px"
	 viewBox="0 0 150 150" style="enable-background:new 0 0 150 150;" xml:space="preserve">
<style type="text/css">
	.st0{fill:#019AA9;}
	.st1{fill:#1A1A1A;}
</style>
<g>
	<path class="st0" d="M80.2,73.5l3.8-8c0.4-0.8,0-1.8-0.8-2.1c-0.8-0.4-1.8,0-2.1,0.8l-3.8,8c-0.4,0.8,0,1.8,0.8,2.1
		C78.8,74.6,79.8,74.3,80.2,73.5z"/>
	<g>
		<path class="st1" d="M145.9,139.2c-0.7,1.6-2,1.8-3.5,1.8c-18.8,0-37.7,0-56.5,0c-25.9,0-51.8,0-77.7,0c-0.5,0-1,0-1.5,0
			c-2-0.1-2.9-1.4-2.4-3.3c1.2-4.3,2.4-8.6,3.7-12.9c5-17.4,9.9-34.8,14.9-52.1c0.6-2.2,1.2-2.6,3.4-2.6c10.6,0,21.2,0,31.7,0
			c0.5,0,1.1,0,1.9,0c-0.3-0.6-0.5-1-0.7-1.4c-3.5-6.1-7-12.2-10.5-18.2c-5.1-8.7-6-17.8-2.2-27.1C50.8,12.5,58.9,5.9,70.4,4.3
			c13.5-1.9,24.2,3.2,31.2,15c5.8,9.8,5.8,20.1,0.2,30.2c-3.5,6.4-7.2,12.7-10.9,19c-0.2,0.4-0.5,0.9-0.8,1.5c0.7,0,1.2,0.1,1.7,0.1
			c10.5,0,21,0,31.5,0c2.9,0,3.3,0.3,4.1,3.1c6,21.2,12.1,42.3,18.1,63.5c0.1,0.4,0.3,0.8,0.5,1.3
			C145.9,138.3,145.9,138.7,145.9,139.2z M140.4,136.2c-0.1-0.4-0.2-0.6-0.2-0.8c-5.7-19.8-11.3-39.6-16.9-59.5
			c-0.3-1-0.8-1.1-1.7-1.1c-11,0-22,0-33,0c-1,0-1.5,0.4-2,1.2c-3,5.3-6,10.6-9.1,15.9c-1.4,2.5-3.4,2.5-4.9,0
			c-3-5.3-6.1-10.6-9.1-15.9c-0.5-0.9-1-1.2-2.1-1.2c-10.9,0-21.9,0-32.8,0c-1.1,0-1.6,0.3-1.9,1.4c-4.8,17-9.7,34.1-14.6,51.1
			c-0.8,2.9-1.7,5.9-2.5,8.9C53.2,136.2,96.7,136.2,140.4,136.2z M75,86.4c0.2-0.3,0.3-0.5,0.4-0.6c7.5-13,14.9-26,22.4-39
			c2.2-3.9,3.2-8.1,3.2-12.5C100.9,18.1,85.9,5.9,70,9c-17.5,3.4-26.4,22.9-17.5,38.4C59.7,60,66.9,72.6,74.2,85.2
			C74.4,85.5,74.6,85.9,75,86.4z"/>
		<path d="M60.8,34.6c0-7.8,6.4-14.2,14.2-14.2c7.7,0,14.2,6.5,14.2,14.2c0,7.7-6.3,14.1-14.1,14.2C67.4,48.8,60.8,42.3,60.8,34.6z
			 M84.4,34.5c0-5.2-4.3-9.4-9.4-9.4c-5.1,0-9.4,4.3-9.4,9.4c0,5.2,4.3,9.6,9.5,9.5C80.2,43.9,84.4,39.7,84.4,34.5z"/>
	</g>
	<path class="st0" d="M131.8,123.4c0.4,0.2,0.8,0.3,1.3,0.2c0.9-0.2,1.4-1.1,1.1-2l-6.5-23.4c-0.2-0.9-1.1-1.4-2-1.1
		c-0.9,0.2-1.4,1.1-1.1,2l6.5,23.4C131.2,122.8,131.5,123.2,131.8,123.4z"/>
	<path class="st0" d="M124.3,95.6c0.4,0.2,0.8,0.3,1.3,0.2c0.9-0.2,1.4-1.1,1.1-2l-0.3-1c-0.2-0.9-1.1-1.4-2-1.1
		c-0.9,0.2-1.4,1.1-1.1,2l0.3,1C123.8,95,124,95.4,124.3,95.6z"/>
	<g>
		<path class="st0" d="M9.4,145.7c0.3-0.3,0.5-0.7,0.5-1.2c0-0.9-0.7-1.6-1.6-1.6l-1.1,0c-0.9,0-1.6,0.7-1.6,1.6
			c0,0.9,0.7,1.6,1.6,1.6l1.1,0C8.7,146.1,9.1,145.9,9.4,145.7z"/>
		<path class="st0" d="M38.3,145.7c0.3-0.3,0.6-0.7,0.6-1.2c0-0.9-0.7-1.6-1.6-1.6l-24.2,0c-0.9,0-1.6,0.7-1.6,1.6
			c0,0.9,0.7,1.6,1.6,1.6l24.2,0C37.7,146.1,38,146,38.3,145.7z"/>
	</g>
	<path class="st0" d="M77.9,77.9l0.4-0.9c0.4-0.8,0.1-1.8-0.7-2.2c-0.8-0.4-1.8-0.1-2.2,0.7L75,76.5c-0.4,0.8-0.1,1.8,0.7,2.2
		C76.5,79.1,77.5,78.7,77.9,77.9z"/>
</g>
</svg>
